PathFileType	4	(X/Y/Z)	D:\Documents\Paper\paper_03\paper_step_1_data\data_step_3\marker\BD\subject_01.tsv
DataRate	CameraRate	NumFrames	NumMarkers	Units	OrigDataRate	OrigDataStartFrame	OrigNumFrames
200	200	9	43	mm	200	0	200
Frame#	Time	Top.Head			L.Acromium			R.Acromium			Sternum			L.ASIS			R.ASIS			V.Sacral			R.Knee.Lat			R.Knee.Med			L.Knee.Lat			L.Knee.Med			L.Ankle.Lat			L.Toe.Tip			R.Heel			R.Ankle.Med			R.Ankle.Lat			L.Toe.Med			L.Toe.Lat			L.Heel			L.Ankle.Med			L.Shank1			L.Shank2			R.Toe.Tip			R.Toe.Med			R.Toe.Lat			L.Thigh2			L.Thigh1			L.Thigh3			R.Thigh3			R.Thigh1			R.Thigh2			R.Shank1			R.Shank2			R.Shank3			L.Shank3			L.Shank4			R.Shank4			L.Thigh4			R.Thigh4			R.Heel.Lat			R.Heel.Med			L.Heel.Lat			L.Heel.Med		
		X1	Y1	Z1	X2	Y2	Z2	X3	Y3	Z3	X4	Y4	Z4	X5	Y5	Z5	X6	Y6	Z6	X7	Y7	Z7	X8	Y8	Z8	X9	Y9	Z9	X10	Y10	Z10	X11	Y11	Z11	X12	Y12	Z12	X13	Y13	Z13	X14	Y14	Z14	X15	Y15	Z15	X16	Y16	Z16	X17	Y17	Z17	X18	Y18	Z18	X19	Y19	Z19	X20	Y20	Z20	X21	Y21	Z21	X22	Y22	Z22	X23	Y23	Z23	X24	Y24	Z24	X25	Y25	Z25	X26	Y26	Z26	X27	Y27	Z27	X28	Y28	Z28	X29	Y29	Z29	X30	Y30	Z30	X31	Y31	Z31	X32	Y32	Z32	X33	Y33	Z33	X34	Y34	Z34	X35	Y35	Z35	X36	Y36	Z36	X37	Y37	Z37	X38	Y38	Z38	X39	Y39	Z39	X40	Y40	Z40	X41	Y41	Z41	X42	Y42	Z42	X43	Y43	Z43
1397	6.98	927.193	1692.83	-994.95	934.089	1410.636	-818.497	1093.929	1399.271	-1090.187	902.228	1358.6	-1019.958	804.71	911.924	-933.135	928.409	931.723	-1134.664	1009.207	964.191	-953.402	1003.576	474.92	-1166.034	948.632	454.752	-1065.918	849.468	476.397	-847.474	885.961	456.721	-950.59	906.995	102.798	-808.734	726.803	56.499	-869.447	1104.97	34.223	-1104.194	990.316	103.268	-1115.324	1060.666	104.756	-1174.015	786.821	45.287	-908.079	793.467	46.363	-802.845	1001.352	31.458	-814.585	927.101	104.49	-894.675	831.645	388.248	-837.016	829.277	307.635	-819.702	875.996	54.659	-1277.271	900.027	44.535	-1205.411	986.506	37.466	-1275.042	791.427	612.943	-879.499	792.634	695.892	-875.774	836.81	692.298	-830.281	1031.885	656.466	-1156.201	977.265	647.959	-1189.464	978.132	564.939	-1182.4	987.925	390.173	-1205.161	1003.357	303.927	-1210.665	1047.136	399.323	-1181.94	883.38	396.015	-801.776	885.237	309.907	-785.26	1062.461	317.236	-1187.555	838.144	603.538	-834.122	1031.525	568.069	-1149.547	1098.329	32.088	-1172.718	1024.832	25.267	-1101.026	935.333	22.352	-780.042	956.502	27.264	-883.618
1398	6.985	927.147	1692.836	-994.989	934.105	1410.636	-818.515	1093.92	1399.289	-1090.224	902.203	1358.618	-1019.969	804.697	911.919	-933.115	928.414	931.752	-1134.685	1009.172	964.19	-953.434	1003.58	474.94	-1166.048	948.634	454.741	-1065.964	849.516	476.428	-847.43	885.992	456.696	-950.555	906.971	102.805	-808.729	726.769	56.56	-869.535	1104.933	34.218	-1104.226	990.344	103.245	-1115.329	1060.663	104.713	-1174.008	786.775	45.258	-908.139	793.453	46.384	-802.846	1001.383	31.468	-814.544	927.12	104.52	-894.681	831.581	388.263	-837.06	829.252	307.612	-819.685	875.993	54.643	-1277.267	900.021	44.549	-1205.408	986.479	37.477	-1275.026	791.422	612.958	-879.489	792.632	695.862	-875.77	836.797	692.292	-830.307	1031.903	656.451	-1156.179	977.256	647.973	-1189.47	978.152	564.933	-1182.38	987.935	390.179	-1205.153	1003.353	303.895	-1210.656	1047.144	399.327	-1181.943	883.398	395.98	-801.77	885.222	309.908	-785.251	1062.45	317.274	-1187.55	838.13	603.543	-834.13	1031.513	568.064	-1149.541	1098.321	32.09	-1172.74	1024.811	25.26	-1101.015	935.344	22.302	-780.081	956.479	27.289	-883.638
1399	6.99	927.127	1692.835	-994.991	934.063	1410.632	-818.504	1093.917	1399.279	-1090.22	902.205	1358.637	-1019.996	804.666	911.937	-933.129	928.434	931.708	-1134.642	1009.141	964.242	-953.414	1003.59	474.923	-1166.008	948.61	454.756	-1065.918	849.494	476.416	-847.414	885.992	456.699	-950.564	906.987	102.792	-808.777	726.693	56.524	-869.642	1104.937	34.211	-1104.196	990.303	103.266	-1115.328	1060.809	104.947	-1174.004	786.69	45.29	-908.219	793.471	46.369	-802.829	1001.366	31.437	-814.581	927.081	104.54	-894.658	831.515	388.23	-837.148	829.262	307.621	-819.692	875.95	54.691	-1277.305	900.049	44.534	-1205.396	986.494	37.424	-1275.033	791.42	612.963	-879.531	792.623	695.861	-875.774	836.8	692.298	-830.307	1031.896	656.455	-1156.177	977.252	647.97	-1189.447	978.155	564.926	-1182.404	987.93	390.146	-1205.145	1003.362	303.899	-1210.649	1047.142	399.329	-1181.972	883.376	396.014	-801.763	885.201	309.916	-785.279	1062.434	317.277	-1187.553	838.14	603.549	-834.192	1031.503	568.045	-1149.461	1098.296	32.077	-1172.732	1024.849	25.262	-1101.001	935.281	22.285	-780.092	956.459	27.317	-883.637
1400	6.995	927.094	1692.837	-995.019	934.071	1410.655	-818.517	1093.901	1399.271	-1090.24	902.189	1358.618	-1019.975	804.674	911.964	-933.129	928.426	931.747	-1134.662	1009.147	964.188	-953.42	1003.569	474.946	-1166.042	948.588	454.765	-1065.941	849.487	476.356	-847.42	885.974	456.712	-950.56	906.989	102.807	-808.731	726.674	56.575	-869.696	1104.92	34.245	-1104.203	990.323	103.207	-1115.273	1060.728	104.722	-1173.984	786.673	45.275	-908.27	793.467	46.366	-802.859	1001.374	31.496	-814.599	927.133	104.527	-894.637	831.474	388.261	-837.244	829.238	307.639	-819.69	875.945	54.672	-1277.312	900.026	44.553	-1205.395	986.485	37.43	-1275.024	791.411	612.947	-879.49	792.614	695.889	-875.785	836.777	692.31	-830.293	1031.898	656.44	-1156.193	977.268	647.994	-1189.457	978.128	564.912	-1182.37	987.887	390.164	-1205.153	1003.318	303.901	-1210.665	1047.111	399.341	-1181.956	883.341	396.003	-801.765	885.222	309.912	-785.243	1062.458	317.303	-1187.576	838.113	603.53	-834.201	1031.488	568.043	-1149.523	1098.308	32.105	-1172.703	1024.809	25.265	-1100.981	935.33	22.287	-780.079	956.491	27.322	-883.63
1401	7	927.079	1692.841	-995.062	934.06	1410.631	-818.533	1093.918	1399.286	-1090.246	902.18	1358.663	-1020.036	804.654	911.963	-933.132	928.418	931.721	-1134.652	1009.143	964.174	-953.408	1003.554	474.962	-1166.039	948.603	454.728	-1065.927	849.689	476.215	-846.983	885.974	456.725	-950.588	906.974	102.791	-808.766	726.706	56.603	-869.724	1104.934	34.248	-1104.216	990.284	103.199	-1115.272	1060.785	104.766	-1173.966	786.708	45.294	-908.245	793.465	46.359	-802.837	1001.385	31.478	-814.574	927.091	104.506	-894.653	831.44	388.259	-837.298	829.243	307.647	-819.688	875.904	54.727	-1277.348	900.018	44.564	-1205.401	986.492	37.433	-1275.036	791.4	612.988	-879.521	792.599	695.91	-875.799	836.777	692.325	-830.296	1031.893	656.454	-1156.205	977.266	647.982	-1189.467	978.125	564.94	-1182.391	987.899	390.182	-1205.151	1003.313	303.911	-1210.656	1047.09	399.366	-1181.964	883.33	396.001	-801.78	885.238	309.927	-785.26	1062.41	317.306	-1187.591	838.08	603.515	-834.216	1031.505	567.984	-1149.493	1098.307	32.095	-1172.712	1024.845	25.254	-1101.01	935.321	22.302	-780.076	956.492	27.298	-883.606
1402	7.005	927.032	1692.876	-995.086	934.055	1410.618	-818.526	1093.906	1399.29	-1090.264	902.163	1358.68	-1020.024	804.67	911.977	-933.144	928.416	931.741	-1134.662	1009.126	964.184	-953.39	1003.562	474.983	-1166.04	948.582	454.762	-1065.921	849.729	476.132	-846.844	886.046	456.772	-950.572	906.982	102.83	-808.732	726.775	56.682	-869.631	1104.921	34.247	-1104.207	990.303	103.225	-1115.259	1060.832	104.862	-1173.972	786.727	45.327	-908.193	793.469	46.388	-802.844	1001.365	31.466	-814.58	927.093	104.577	-894.631	831.38	388.252	-837.38	829.242	307.644	-819.688	875.909	54.734	-1277.337	900.032	44.55	-1205.417	986.495	37.442	-1275.024	791.406	612.974	-879.514	792.594	695.898	-875.795	836.752	692.313	-830.306	1031.881	656.467	-1156.192	977.246	648.007	-1189.465	978.119	564.918	-1182.372	987.899	390.17	-1205.151	1003.281	303.907	-1210.665	1047.092	399.376	-1181.939	883.331	396.025	-801.774	885.263	309.868	-785.244	1062.406	317.305	-1187.565	838.038	603.515	-834.248	1031.479	568.052	-1149.53	1098.302	32.085	-1172.691	1024.83	25.29	-1100.977	935.337	22.315	-780.073	956.484	27.349	-883.633
1403	7.01	927.034	1692.863	-995.11	934.028	1410.619	-818.536	1093.896	1399.263	-1090.268	902.157	1358.687	-1020.05	804.663	911.976	-933.16	928.417	931.755	-1134.681	1009.143	964.215	-953.412	1003.506	474.983	-1166.049	948.533	454.782	-1065.941	849.734	476.115	-846.745	886.013	456.749	-950.578	906.988	102.789	-808.725	726.903	56.668	-869.443	1104.942	34.224	-1104.201	990.293	103.232	-1115.308	1060.649	104.75	-1174.038	786.77	45.34	-908.176	793.485	46.374	-802.829	1001.375	31.467	-814.584	927.105	104.524	-894.656	831.323	388.293	-837.414	829.239	307.647	-819.682	875.899	54.681	-1277.365	900.001	44.59	-1205.409	986.513	37.478	-1275.006	791.375	612.981	-879.519	792.581	695.879	-875.797	836.737	692.318	-830.306	1031.876	656.466	-1156.216	977.233	648.011	-1189.473	978.102	564.98	-1182.371	987.885	390.194	-1205.142	1003.297	303.931	-1210.684	1047.093	399.345	-1181.952	883.351	396.022	-801.796	885.243	309.929	-785.238	1062.4	317.291	-1187.592	838.036	603.508	-834.264	1031.487	568.077	-1149.52	1098.294	32.124	-1172.683	1024.819	25.261	-1101.014	935.315	22.327	-780.083	956.504	27.343	-883.599
1404	7.015	927.002	1692.867	-995.127	934.014	1410.641	-818.56	1093.886	1399.281	-1090.264	902.136	1358.702	-1020.026	804.656	911.988	-933.148	928.42	931.728	-1134.665	1009.101	964.161	-953.364	1003.507	474.989	-1166.03	948.524	454.781	-1065.937	849.735	476.074	-846.735	886.002	456.755	-950.572	906.983	102.813	-808.75	727.168	56.656	-868.977	1104.922	34.248	-1104.212	990.254	103.244	-1115.292	1060.626	104.694	-1174.062	787.142	45.467	-907.69	793.456	46.389	-802.834	1001.358	31.48	-814.56	927.105	104.538	-894.669	831.287	388.282	-837.483	829.238	307.628	-819.698	875.877	54.702	-1277.366	900.022	44.557	-1205.375	986.503	37.473	-1275.022	791.381	612.968	-879.527	792.579	695.894	-875.805	836.711	692.29	-830.294	1031.841	656.483	-1156.221	977.227	648.008	-1189.475	978.092	564.942	-1182.403	987.842	390.183	-1205.152	1003.274	303.94	-1210.691	1047.082	399.341	-1181.966	883.337	396.031	-801.793	885.202	309.894	-785.244	1062.389	317.321	-1187.596	838.001	603.496	-834.324	1031.446	568.044	-1149.541	1098.303	32.112	-1172.698	1024.808	25.259	-1101	935.33	22.309	-780.099	956.516	27.35	-883.632
1405	7.02	926.996	1692.873	-995.118	933.979	1410.635	-818.559	1093.889	1399.286	-1090.308	902.118	1358.696	-1020.054	804.655	911.953	-933.122	928.391	931.737	-1134.654	1009.057	964.149	-953.356	1003.493	474.991	-1166.019	948.505	454.807	-1065.945	849.82	476.142	-846.68	885.993	456.731	-950.556	907.227	103.209	-808.464	727.169	56.672	-868.991	1104.935	34.262	-1104.184	990.281	103.24	-1115.259	1060.73	104.758	-1173.97	787.127	45.437	-907.667	793.469	46.361	-802.823	1001.334	31.439	-814.572	927.105	104.537	-894.637	831.237	388.279	-837.552	829.225	307.633	-819.685	875.881	54.7	-1277.361	900.014	44.567	-1205.408	986.477	37.505	-1275.025	791.363	612.976	-879.516	792.567	695.91	-875.8	836.684	692.301	-830.3	1031.837	656.493	-1156.211	977.198	647.992	-1189.461	978.072	564.966	-1182.399	987.835	390.192	-1205.176	1003.235	303.905	-1210.666	1047.064	399.334	-1181.937	883.323	396.017	-801.785	885.238	309.891	-785.249	1062.37	317.332	-1187.594	837.995	603.475	-834.337	1031.437	568.029	-1149.551	1098.298	32.097	-1172.68	1024.825	25.28	-1100.997	935.35	22.334	-780.084	956.49	27.319	-883.599
